<?xml version="1.0" encoding="UTF-8"?>
<svg width="40px" height="40px" viewBox="0 0 40 40" version="1.1" xmlns="http://www.w3.org/2000/svg" xmlns:xlink="http://www.w3.org/1999/xlink">
    <!-- Generator: Sketch 48.1 (47250) - http://www.bohemiancoding.com/sketch -->
    <title>B (pressed)</title>
    <desc>Created with Sketch.</desc>
    <defs>
        <radialGradient cx="210.649414%" cy="57.7294946%" fx="210.649414%" fy="57.7294946%" r="147.838246%" gradientTransform="translate(2.106494,0.577295),rotate(0.000000),scale(1.000000,0.847212),translate(-2.106494,-0.577295)" id="radialGradient-1">
            <stop stop-color="#FFFFFF" offset="0%"></stop>
            <stop stop-color="#000000" offset="100%"></stop>
        </radialGradient>
        <linearGradient x1="50%" y1="148.105469%" x2="50%" y2="-19.2871094%" id="linearGradient-2">
            <stop stop-color="#68686A" offset="0%"></stop>
            <stop stop-color="#120F0F" offset="100%"></stop>
        </linearGradient>
        <circle id="path-3" cx="20" cy="20" r="20"></circle>
        <filter x="-15.0%" y="-15.0%" width="130.0%" height="130.0%" filterUnits="objectBoundingBox" id="filter-4">
            <feMorphology radius="3" operator="erode" in="SourceAlpha" result="shadowSpreadInner1"></feMorphology>
            <feGaussianBlur stdDeviation="3.5" in="shadowSpreadInner1" result="shadowBlurInner1"></feGaussianBlur>
            <feOffset dx="0" dy="2" in="shadowBlurInner1" result="shadowOffsetInner1"></feOffset>
            <feComposite in="shadowOffsetInner1" in2="SourceAlpha" operator="arithmetic" k2="-1" k3="1" result="shadowInnerInner1"></feComposite>
            <feColorMatrix values="0 0 0 0 0   0 0 0 0 0   0 0 0 0 0  0 0 0 0.5 0" type="matrix" in="shadowInnerInner1"></feColorMatrix>
        </filter>
    </defs>
    <g id="Controller-Assets" stroke="none" stroke-width="1" fill="none" fill-rule="evenodd">
        <g id="B-(pressed)">
            <g>
                <g id="Oval-3-Copy-9">
                    <use fill="url(#radialGradient-1)" fill-rule="evenodd" xlink:href="#path-3"></use>
                    <use fill="black" fill-opacity="1" filter="url(#filter-4)" xlink:href="#path-3"></use>
                    <circle stroke="url(#linearGradient-2)" stroke-width="1" cx="20" cy="20" r="19.5"></circle>
                </g>
                <path d="M11.5731818,8.2 L24.0171818,8.2 C27.2471818,8.2 28.7771818,9.73 28.7771818,14.558 C28.7771818,17.754 28.1991818,18.978 26.6351818,19.828 C28.3351818,20.576 29.0491818,21.902 29.0491818,25.37 C29.0491818,30.47 27.5191818,32 24.2891818,32 L11.5731818,32 L11.5731818,8.2 Z M16.4691818,17.72 L23.2011818,17.72 C23.7111818,17.72 23.8811818,17.55 23.8811818,15.17 C23.8811818,12.79 23.7111818,12.62 23.2011818,12.62 L16.4691818,12.62 L16.4691818,17.72 Z M16.4691818,27.58 L23.4731818,27.58 C23.9831818,27.58 24.1531818,27.41 24.1531818,24.758 C24.1531818,22.106 23.9831818,21.936 23.4731818,21.936 L16.4691818,21.936 L16.4691818,27.58 Z" id="B" fill="#FF0020" opacity="0.6"></path>
            </g>
        </g>
    </g>
</svg>