<?xml version="1.0" encoding="UTF-8"?>
<svg width="864px" height="170px" viewBox="0 0 864 170" version="1.1" xmlns="http://www.w3.org/2000/svg" xmlns:xlink="http://www.w3.org/1999/xlink">
    <!-- Generator: Sketch 48.1 (47250) - http://www.bohemiancoding.com/sketch -->
    <title>Background (desktop)</title>
    <desc>Created with Sketch.</desc>
    <defs>
        <radialGradient cx="100%" cy="71.3758042%" fx="100%" fy="71.3758042%" r="47.1657646%" gradientTransform="translate(1.000000,0.713758),scale(0.787037,1.000000),rotate(178.631536),translate(-1.000000,-0.713758)" id="radialGradient-1">
            <stop stop-color="#353435" offset="0%"></stop>
            <stop stop-color="#0A0707" offset="100%"></stop>
        </radialGradient>
    </defs>
    <g id="Controller-Assets" stroke="none" stroke-width="1" fill="none" fill-rule="evenodd">
        <g id="Background-(desktop)">
            <g id="Background-(desktopl)">
                <path d="M216,8 L216,162 C216,166.418278 212.418278,170 208,170 L0,170 L0,0 L208,0 C212.418278,-8.11624501e-16 216,3.581722 216,8 Z" id="Rectangle-12-Copy-4" fill="url(#radialGradient-1)" transform="translate(108.000000, 85.000000) scale(-1, 1) translate(-108.000000, -85.000000) "></path>
                <rect id="Rectangle-12-Copy-2" fill="#0A0707" x="432" y="0" width="216" height="170"></rect>
                <path d="M648,0 L856,0 C860.418278,-8.11624501e-16 864,3.581722 864,8 L864,162 C864,166.418278 860.418278,170 856,170 L648,170 L648,0 Z" id="Rectangle-12-Copy-3" fill="url(#radialGradient-1)"></path>
                <rect id="Rectangle-12-Copy" fill="#0A0707" x="216" y="0" width="216" height="170"></rect>
            </g>
        </g>
    </g>
</svg>