<?xml version="1.0" encoding="UTF-8"?>
<svg width="113px" height="113px" viewBox="0 0 113 113" version="1.1" xmlns="http://www.w3.org/2000/svg" xmlns:xlink="http://www.w3.org/1999/xlink">
    <!-- Generator: Sketch 48.1 (47250) - http://www.bohemiancoding.com/sketch -->
    <title>D-pad (up)</title>
    <desc>Created with Sketch.</desc>
    <defs>
        <radialGradient cx="50%" cy="100%" fx="50%" fy="100%" r="100%" gradientTransform="translate(0.500000,1.000000),scale(1.000000,0.982171),rotate(90.000000),translate(-0.500000,-1.000000)" id="radialGradient-1">
            <stop stop-color="#585558" offset="0%"></stop>
            <stop stop-color="#000000" offset="100%"></stop>
        </radialGradient>
        <linearGradient x1="50%" y1="106.692078%" x2="50%" y2="-7.60248656%" id="linearGradient-2">
            <stop stop-color="#68686A" offset="0%"></stop>
            <stop stop-color="#120F0F" offset="100%"></stop>
        </linearGradient>
        <path d="M72.2565796,16 C72.2303225,12.6862915 69.6443776,10 66.4807102,10 L46.8611915,10 C43.6975241,10 41.1115793,12.6862915 41.0853221,16 L40.8970524,39.76 L17.4179317,39.76 C14.2062511,39.76 11.5418535,42.4462915 11.4668329,45.76 L11.0015923,66.31 C10.9265717,69.6237085 13.5119084,72.31 16.7761033,72.31 L40.6391325,72.31 L40.4434937,97 C40.4172365,100.313708 43.0822424,103 46.3959509,103 L66.9459509,103 C70.2596594,103 72.9246652,100.313708 72.898408,97 L72.7027692,72.31 L96.5657984,72.31 C99.8299933,72.31 102.41533,69.6237085 102.340309,66.31 L101.875069,45.76 C101.800048,42.4462915 99.1356506,39.76 95.92397,39.76 L72.4448493,39.76 L72.2565796,16 Z" id="path-3"></path>
        <filter x="-18.1%" y="-14.5%" width="136.1%" height="135.5%" filterUnits="objectBoundingBox" id="filter-4">
            <feMorphology radius="1.5" operator="dilate" in="SourceAlpha" result="shadowSpreadOuter1"></feMorphology>
            <feOffset dx="0" dy="3" in="shadowSpreadOuter1" result="shadowOffsetOuter1"></feOffset>
            <feGaussianBlur stdDeviation="3.5" in="shadowOffsetOuter1" result="shadowBlurOuter1"></feGaussianBlur>
            <feComposite in="shadowBlurOuter1" in2="SourceAlpha" operator="out" result="shadowBlurOuter1"></feComposite>
            <feColorMatrix values="0 0 0 0 0   0 0 0 0 0   0 0 0 0 0  0 0 0 0.5 0" type="matrix" in="shadowBlurOuter1"></feColorMatrix>
        </filter>
    </defs>
    <g id="Controller-Assets" stroke="none" stroke-width="1" fill="none" fill-rule="evenodd">
        <g id="D-pad-(up)">
            <g>
                <use fill="black" fill-opacity="1" filter="url(#filter-4)" xlink:href="#path-3"></use>
                <use fill="url(#radialGradient-1)" fill-rule="evenodd" xlink:href="#path-3"></use>
                <path stroke="url(#linearGradient-2)" stroke-width="1" d="M71.7565953,16.0039618 C71.7324743,12.9598424 69.3645196,10.5 66.4807102,10.5 L46.8611915,10.5 C43.9773821,10.5 41.6094274,12.9598424 41.5853064,16.0039618 L41.3931062,40.26 L17.4179317,40.26 C14.4814642,40.26 12.0356512,42.7259107 11.9667048,45.7713168 L11.5014642,66.3213168 C11.4327544,69.3562763 13.7942634,71.81 16.7761033,71.81 L41.1431101,71.81 L40.943478,97.0039618 C40.9194211,100.039992 43.3599368,102.5 46.3959509,102.5 L66.9459509,102.5 C69.981965,102.5 72.4224806,100.039992 72.3984237,97.0039618 L72.1987916,71.81 L96.5657984,71.81 C99.5476383,71.81 101.909147,69.3562763 101.840438,66.3213168 L101.375197,45.7713168 C101.306251,42.7259107 98.8604375,40.26 95.92397,40.26 L71.9487955,40.26 L71.7565953,16.0039618 Z"></path>
            </g>
        </g>
    </g>
</svg>